# xmcd
#
# Track frame offsets: 
#        150
#        22944
#        48699
#        71531
#        89861
#        111992
#        130073
#        154317
#        181802
#        204271
#
# Disc length: 3077 seconds
#
# Revision: 0
# Processed by: cddbd v1.5.2PL0 Copyright (c) Steve Scherf et al.
# Submitted via: ExactAudioCopy v1.0b3
#
DISCID=890c030a
DTITLE=Nhu Quynh - Tien Biet
DYEAR=2008
DGENRE=
TTITLE0=Nhu Quynh, Manh Khuong - Tien biet
TTITLE1=Hoa tim ngay xua
TTITLE2=Nang len xom ngheo
TTITLE3=Cho mot ngay
TTITLE4=Nhu Quynh, Tuong Nguyen - Dung noi xa nhau
TTITLE5=Co ban hoc
TTITLE6=Mot doi tim nhau
TTITLE7=Chanh long
TTITLE8=Thuo ay yeu nhau
TTITLE9=Nhu Quynh, Manh Khuong - Huong toc ma non
EXTD=
EXTT0=
EXTT1=
EXTT2=
EXTT3=
EXTT4=
EXTT5=
EXTT6=
EXTT7=
EXTT8=
EXTT9=
PLAYORDER=
